<svg width="163" height="115" viewBox="0 0 163 115" fill="none" xmlns="http://www.w3.org/2000/svg">
<path d="M104.521 43.4168C110.26 33.3239 128.92 13.9269 158.504 14.8306C159.638 14.8652 160.273 16.1412 159.688 17.1132C149.722 33.6771 145.33 63.203 121.253 63.203C110.953 62.633 91.7695 59.9542 97.4367 53.7984C104.364 46.2742 149.13 73.7859 118.448 111.895C117.644 112.893 116.026 112.403 115.83 111.136C111.468 82.8749 89.183 90.5156 93.7726 69.9206M78.6277 53.7984V106.073M65.559 69.9206C69.2195 91.8792 49.8285 86.6789 43.7851 109.029C43.494 110.106 42.1647 110.54 41.3737 109.753C18.1344 86.6468 46.6855 46.4743 62.5729 53.473C62.9963 53.6595 63.2981 54.0691 63.2703 54.5309C63.0198 58.7072 55.5 64.9942 26.1093 61.4931C10.226 58.0895 8.78302 29.3415 2.77587 18.7149C2.03531 17.4049 2.85979 14.341 4.36381 14.2905C16.55 13.8814 37.7413 19.2078 55.5444 43.4168M30.3841 2.50073C42.9643 10.1547 69.4193 31.545 74.5979 55.8748M82.659 55.8748C89.6571 27.4981 100.834 14.2259 127.606 2.50073" stroke="#E3B5AF" stroke-width="5" stroke-linecap="round"/>
</svg>
